HIERARCHY
ROOT Hips
{
	OFFSET 0.00 0.00 0.00
	CHANNELS 6 Xposition Yposition Zposition Yrotation Xrotation Zrotation
	JOINT LHipJoint
	{
		OFFSET	0.0000	0.0000	0.0000
		CHANNELS 3 Yrotation Xrotation Zrotation
		JOINT LeftUpLeg
		{
			OFFSET	1.0138	-0.0809	-0.0827
			CHANNELS 3 Yrotation Xrotation Zrotation
			JOINT LeftLeg
			{
				OFFSET	0.4110	-3.9095	0.3245
				CHANNELS 3 Yrotation Xrotation Zrotation
				JOINT LeftFoot
				{
					OFFSET	0.3810	-4.0555	-0.1470
					CHANNELS 3 Yrotation Xrotation Zrotation
					JOINT LeftToeBase
					{
						OFFSET	0.1396	-0.4462	1.3079
						CHANNELS 3 Yrotation Xrotation Zrotation
						End Site
						{
							OFFSET 0.0161 -0.0248 0.1809
						}
					}
				}
			}
		}
	}
	JOINT LowerBack
	{
		OFFSET	0.0000	0.7977	-0.3873
		CHANNELS 3 Yrotation Xrotation Zrotation
		JOINT Spine
		{
			OFFSET	0.0000	1.4131	0.1715
			CHANNELS 3 Yrotation Xrotation Zrotation
			JOINT Spine1
			{
				OFFSET	0.0000	1.4392	-0.1032
				CHANNELS 3 Yrotation Xrotation Zrotation
				JOINT LeftShoulder
				{
					OFFSET	0.2274	1.0382	0.4032
					CHANNELS 3 Yrotation Xrotation Zrotation
					JOINT LeftArm
					{
						OFFSET	1.4730	-0.2267	-0.0231
						CHANNELS 3 Yrotation Xrotation Zrotation
						JOINT LeftForeArm
						{
							OFFSET	1.6131	-1.8059	0.0081
							CHANNELS 3 Yrotation Xrotation Zrotation
							JOINT LeftHand
							{
								OFFSET	1.2197	-1.2423	1.6317
								CHANNELS 3 Yrotation Xrotation Zrotation
								JOINT LThumb
								{
									OFFSET	0.0109	-0.0753	0.4387
									CHANNELS 3 Yrotation Xrotation Zrotation
									End Site
									{
										OFFSET -0.2090 -0.0868 0.2097
									}
								}
								JOINT LeftFingerBase
								{
									OFFSET	0.1071	-0.1567	0.2607
									CHANNELS 3 Yrotation Xrotation Zrotation
									JOINT LeftHandFinger1
									{
										OFFSET	0.1706	-0.2492	0.6830
										CHANNELS 3 Yrotation Xrotation Zrotation
										End Site
										{
											OFFSET 0.0335 -0.1507 0.2071
										}
									}
								}
							}
						}
					}
				}
				JOINT Neck
				{
					OFFSET	0.0000	1.7498	0.2381
					CHANNELS 3 Yrotation Xrotation Zrotation
					JOINT Neck1
					{
						OFFSET	0.0000	0.5043	0.1959
						CHANNELS 3 Yrotation Xrotation Zrotation
						JOINT Head
						{
							OFFSET	0.0000	0.5044	0.1959
							CHANNELS 3 Yrotation Xrotation Zrotation
							End Site
							{
								OFFSET 0.0000 1.4798 -0.0693
							}
						}
					}
				}
				JOINT RightShoulder
				{
					OFFSET	-0.2274	1.0382	0.4032
					CHANNELS 3 Yrotation Xrotation Zrotation
					JOINT RightArm
					{
						OFFSET	-1.4730	-0.2267	-0.0231
						CHANNELS 3 Yrotation Xrotation Zrotation
						JOINT RightForeArm
						{
							OFFSET	-1.6131	-1.8059	0.0081
							CHANNELS 3 Yrotation Xrotation Zrotation
							JOINT RightHand
							{
								OFFSET	-1.2197	-1.2423	1.6317
								CHANNELS 3 Yrotation Xrotation Zrotation
								JOINT RThumb
								{
									OFFSET	-0.0109	-0.0753	0.4387
									CHANNELS 3 Yrotation Xrotation Zrotation
									End Site
									{
										OFFSET 0.2090 -0.0868 0.2097
									}
								}
								JOINT RightFingerBase
								{
									OFFSET	-0.1071	-0.1567	0.2607
									CHANNELS 3 Yrotation Xrotation Zrotation
									JOINT RightHandFinger1
									{
										OFFSET	-0.1706	-0.2492	0.6830
										CHANNELS 3 Yrotation Xrotation Zrotation
										End Site
										{
											OFFSET -0.0335 -0.1507 0.2071
										}
									}
								}
							}
						}
					}
				}
			}
		}
	}
	JOINT RHipJoint
	{
		OFFSET	0.0000	0.0000	0.0000
		CHANNELS 3 Yrotation Xrotation Zrotation
		JOINT RightUpLeg
		{
			OFFSET	-1.0138	-0.0809	-0.0827
			CHANNELS 3 Yrotation Xrotation Zrotation
			JOINT RightLeg
			{
				OFFSET	-0.4110	-3.9095	0.3245
				CHANNELS 3 Yrotation Xrotation Zrotation
				JOINT RightFoot
				{
					OFFSET	-0.3810	-4.0555	-0.1470
					CHANNELS 3 Yrotation Xrotation Zrotation
					JOINT RightToeBase
					{
						OFFSET	-0.1396	-0.4462	1.3079
						CHANNELS 3 Yrotation Xrotation Zrotation
						End Site
						{
							OFFSET -0.0161 -0.0248 0.1809
						}
					}
				}
			}
		}
	}
}
MOTION
Frames: 10
Frame Time: 0.0333333
0.0547 7.9130 -0.0281 4.6096 0.8750 3.5865 0.0000 -0.0000 0.0000 6.4048 18.5248 -8.3712 0.5610 16.0445 -0.1569 -2.7816 -29.2263 5.8245 -0.0000 -13.0276 0.0000 0.0000 -0.0000 0.0000 -3.5937 2.6980 -1.2190 -7.0123 5.3108 -2.6638 -5.9886 0.7843 -2.1944 -8.0583 -15.9442 -12.3710 -2.5102 -1.6335 -1.9142 1.5710 7.0271 10.3058 33.3084 2.0050 16.1850 -3.5744 20.2936 -8.3694 -5.2212 -4.8538 -1.6094 0.5303 0.8117 -0.1790 0.5303 0.8117 -0.1790 1.8707 -11.0609 0.0406 7.4530 1.3651 2.1052 -22.5338 8.6343 25.1522 -28.6443 29.2557 -5.3712 16.6951 15.1839 -14.6184 -35.6271 2.9569 -17.4419 9.2779 24.4672 13.4257 9.4657 -0.1682 5.1103 0.0000 -0.0000 0.0000 -5.0944 -39.9100 5.0409 -13.0960 26.8122 -6.1181 -4.7237 -11.2051 -10.8139 0.0000 0.0000 0.0000 
0.0009 7.8458 -0.0327 4.9085 0.7842 2.6909 0.0000 -0.0000 0.0000 7.5146 19.7749 -5.2551 0.0694 21.4301 -0.5375 -1.7476 -23.2242 3.9015 -0.0000 -25.0495 -0.0000 0.0000 -0.0000 0.0000 -4.0059 2.8247 -0.8946 -7.7617 5.6072 -1.7385 -5.9126 0.7890 -2.3160 -8.2866 -17.9440 -11.5098 -5.1609 -4.5814 -1.7164 2.4621 5.8050 11.8346 33.3084 2.0050 16.1850 -3.5744 20.2936 -8.3694 -5.2212 -4.8538 -1.6094 0.6367 0.6408 -0.3598 0.6367 0.6408 -0.3598 2.2988 -11.2032 -0.5708 7.7286 1.3987 2.2498 -24.8369 10.2680 24.5585 -29.5404 29.9252 -5.7997 16.4378 15.4278 -15.7934 -35.6271 2.9569 -17.4419 9.2780 24.4672 13.4257 9.4657 -0.1682 5.1102 0.0000 -0.0000 0.0000 -5.8831 -39.6346 5.9285 -15.9472 32.8522 -8.5900 -4.0557 -5.4646 -8.6866 -0.0000 -0.0040 0.0000 
-0.0548 7.8140 -0.0531 4.3477 0.5825 1.4892 0.0000 -0.0000 0.0000 7.5779 17.2593 -2.7258 -1.2397 31.3498 -1.6788 -0.6263 -10.2444 3.3254 5.0802 -59.4467 -16.9163 0.0000 -0.0000 0.0000 -4.2023 2.9131 -0.4277 -8.0722 5.8008 -0.9503 -5.8232 0.7922 -2.4013 -6.9716 -18.6649 -11.8664 -6.7610 -6.3433 -1.5317 3.2778 4.6903 12.8059 33.3084 2.0050 16.1850 -3.5745 20.2936 -8.3694 -5.2212 -4.8538 -1.6095 0.7365 0.4724 -0.4608 0.7364 0.4725 -0.4608 2.7640 -11.3552 -1.1335 8.0122 1.4284 2.3566 -26.2739 10.9286 24.2311 -30.2768 30.4647 -6.1587 16.0615 15.5524 -16.5860 -35.6271 2.9569 -17.4419 9.2780 24.4672 13.4257 9.4657 -0.1682 5.1103 0.0000 -0.0000 0.0000 -7.1747 -37.4946 7.9204 -17.1245 36.4391 -9.8722 -2.6173 -2.7661 -7.7623 0.0000 0.0000 -0.0000 
-0.1099 7.8320 -0.0783 3.1763 0.2935 0.2375 0.0000 -0.0000 0.0000 6.5453 11.8899 -1.2007 -2.9205 43.5945 -3.8454 0.4254 1.4206 2.6328 0.0000 -31.7385 -0.0000 0.0000 -0.0000 0.0000 -3.9545 2.9366 -0.0331 -7.4815 5.8399 -0.5066 -5.7412 0.7921 -2.4098 -2.7984 -16.6978 -14.6917 -6.0566 -5.5697 -1.6191 4.2049 3.7579 12.3508 33.3084 2.0050 16.1850 -3.5744 20.2936 -8.3694 -5.2212 -4.8538 -1.6095 0.7937 0.3268 -0.3491 0.7937 0.3268 -0.3491 3.2077 -11.6518 -1.4896 8.3456 1.4565 2.4054 -25.5867 9.2998 24.4480 -30.4218 30.5698 -6.2301 15.2449 15.0649 -16.0315 -35.6271 2.9569 -17.4419 9.2779 24.4672 13.4257 9.4657 -0.1682 5.1103 0.0000 -0.0000 0.0000 -8.0958 -35.0684 10.0139 -18.4634 39.5826 -11.2529 -1.0817 -7.9230 -7.3203 -0.0000 -0.0000 -0.0000 
-0.1601 7.9021 -0.0966 2.1149 0.1140 -0.6946 0.0000 -0.0000 0.0000 4.8274 4.7612 -0.8648 -3.2924 55.7072 -5.4754 0.7128 5.0746 4.6820 -0.0000 -20.7403 0.0000 0.0000 -0.0000 0.0000 -3.5730 3.0211 0.2321 -6.6741 5.9888 -0.4019 -5.7560 0.7929 -2.4304 0.7136 -14.1566 -17.4430 -3.9139 -3.1981 -1.8264 5.3909 3.1403 10.6090 33.3084 2.0050 16.1851 -3.5744 20.2936 -8.3694 -5.2212 -4.8538 -1.6095 0.7421 0.2621 -0.1294 0.7421 0.2622 -0.1294 3.1314 -11.9030 -1.2087 8.5454 1.4701 2.4207 -23.3877 6.1331 24.9017 -29.6764 30.0256 -5.8655 13.8806 13.5239 -13.7186 -35.6271 2.9569 -17.4419 9.2779 24.4672 13.4257 9.4657 -0.1682 5.1103 0.0000 -0.0000 0.0000 -7.8338 -31.2663 11.2174 -18.5960 40.2623 -11.4565 -0.5667 -12.0365 -6.8406 -0.0000 -0.0043 -0.0000 
-0.2003 8.0084 -0.0994 1.8268 0.2587 -1.0183 0.0000 -0.0000 0.0000 2.8387 -3.1911 -1.3926 0.9076 63.7220 -2.5336 0.5523 3.8746 7.0539 -0.0000 -7.1474 -0.0000 0.0000 -0.0000 0.0000 -3.2401 3.0772 0.2828 -6.0560 6.0829 -0.6100 -5.7901 0.7955 -2.4894 2.3106 -11.8276 -19.0252 -0.4182 0.7068 -1.9739 5.5986 3.7563 8.2189 33.3084 2.0050 16.1850 -3.5744 20.2936 -8.3694 -5.2212 -4.8538 -1.6095 0.6011 0.2806 -0.0186 0.6012 0.2805 -0.0186 2.3760 -11.6147 -0.2065 8.2928 1.4358 2.2906 -20.3761 2.3160 25.5665 -28.1932 28.9131 -5.1590 12.3108 11.5600 -10.6181 -35.6271 2.9569 -17.4419 9.2779 24.4671 13.4257 9.4657 -0.1682 5.1103 0.0000 -0.0000 0.0000 -6.7487 -26.7678 11.3735 -18.1376 39.1634 -10.9873 -0.9503 -15.4801 -6.0288 0.0000 -0.0521 -0.0000 
-0.2240 8.1201 -0.0893 2.1131 0.6977 -0.8762 0.0000 -0.0000 0.0000 1.1983 -10.7161 -2.4267 10.3539 65.6772 6.0677 0.0238 0.0543 8.7477 0.0000 -7.6244 0.0000 0.0000 -0.0000 0.0000 -2.9355 3.0359 0.1710 -5.5736 5.9896 -0.9794 -5.6849 0.7946 -2.4837 2.4156 -9.9417 -19.6022 4.5544 6.2504 -1.7732 3.0408 6.2139 7.0535 33.3084 2.0050 16.1851 -3.5744 20.2936 -8.3694 -5.2212 -4.8538 -1.6095 0.4400 0.3424 -0.1107 0.4401 0.3423 -0.1107 1.2795 -10.8144 1.0149 7.6668 1.3523 1.9720 -17.2825 -1.5219 26.4502 -26.3649 27.4866 -4.3243 11.0836 10.2962 -8.2534 -35.6271 2.9569 -17.4419 9.2780 24.4672 13.4257 9.4657 -0.1682 5.1102 0.0000 -0.0000 0.0000 -5.9331 -21.9034 10.9853 -17.2899 36.9490 -10.0805 -1.4301 -18.4465 -5.1823 0.0000 -0.0211 0.0000 
-0.2283 8.2062 -0.0728 1.9348 1.2917 -0.6131 0.0000 -0.0000 0.0000 0.5506 -16.7253 -3.6742 17.1424 61.7004 12.2769 -0.7143 -3.6743 9.0309 0.0000 -11.5322 -0.0000 0.0000 -0.0000 0.0000 -2.4231 2.8864 0.0013 -4.6978 5.6975 -1.2938 -5.3911 0.7860 -2.3239 2.3556 -8.6002 -19.9096 11.0940 13.3053 -0.7898 -2.7480 10.0857 9.1210 33.3084 2.0050 16.1850 -3.5745 20.2936 -8.3694 -5.2212 -4.8538 -1.6095 0.3074 0.4083 -0.3031 0.3074 0.4082 -0.3031 0.3167 -9.8684 1.8694 7.0610 1.2591 1.5882 -14.6096 -5.2304 27.3847 -24.6701 26.1098 -3.5880 10.6935 10.6618 -7.7435 -35.6271 2.9569 -17.4419 9.2779 24.4671 13.4257 9.4657 -0.1682 5.1103 0.0000 -0.0000 0.0000 -5.9288 -16.9662 10.4290 -16.2933 34.2740 -8.9864 -0.6426 -21.0237 -4.7526 0.0000 -0.0001 0.0000 
-0.2160 8.2557 -0.0549 0.3920 2.0582 -0.3814 0.0000 -0.0000 0.0000 1.0517 -21.2132 -4.9754 18.5970 53.7962 13.0631 -1.3226 -6.2500 7.9485 0.0341 -15.1405 -1.8735 0.0000 -0.0000 0.0000 -1.5032 2.6131 -0.2200 -2.9935 5.1802 -1.5178 -5.0856 0.7733 -2.1086 3.4870 -7.7618 -20.4226 18.7099 20.8596 1.3119 -9.4417 14.6163 14.7204 33.3084 2.0050 16.1850 -3.5744 20.2936 -8.3694 -5.2212 -4.8538 -1.6095 0.2080 0.4466 -0.4347 0.2081 0.4466 -0.4347 -0.2782 -9.1173 2.1589 6.7788 1.2041 1.3265 -12.3314 -9.1985 28.0250 -23.2952 24.9547 -3.0184 10.9431 12.3478 -8.5124 -35.6271 2.9569 -17.4419 9.2780 24.4672 13.4257 9.4657 -0.1682 5.1103 0.0000 -0.0000 0.0000 -6.4107 -12.2980 9.5881 -14.4634 31.6597 -7.3993 1.3623 -23.2629 -4.8934 -0.0000 -0.0000 -0.0000 
-0.1936 8.2753 -0.0395 -2.2938 3.0121 -0.1882 0.0000 -0.0000 0.0000 2.0635 -25.0530 -6.0772 18.0039 44.2589 11.5449 -0.8961 -10.3624 5.4463 0.1044 -10.9488 -3.3217 0.0000 -0.0000 0.0000 -0.3225 2.2368 -0.5173 -0.7312 4.4640 -1.7316 -5.0290 0.7694 -2.0353 6.4539 -6.9447 -21.0624 25.8061 27.0384 4.0774 -13.4337 19.2615 21.6732 33.3084 2.0050 16.1850 -3.5744 20.2936 -8.3694 -5.2212 -4.8538 -1.6095 0.1343 0.4417 -0.4457 0.1343 0.4416 -0.4456 -0.5452 -8.8361 2.0788 6.8108 1.1970 1.2531 -9.9860 -13.9275 28.0428 -21.9602 23.8006 -2.4902 10.9887 13.6081 -8.6098 -35.6270 2.9569 -17.4419 9.2780 24.4672 13.4257 9.4657 -0.1682 5.1103 0.0000 -0.0000 0.0000 -7.0588 -7.9390 8.2765 -10.1762 29.1956 -4.6072 2.5677 -25.2022 -5.3921 0.0000 -0.7419 0.0000 
